<svg xmlns="http://www.w3.org/2000/svg" width="26" height="24" viewBox="0 0 26 24"><defs><style>.a{fill:#ae9a5b;}</style></defs><g transform="translate(0 -0.5)"><path class="a" d="M19.231,2.184A2.215,2.215,0,0,0,17.034.5a.435.435,0,0,0-.448.421.435.435,0,0,0,.448.421,1.308,1.308,0,0,1,1.345,1.263,1.308,1.308,0,0,1-1.345,1.263.422.422,0,1,0,0,.842,2.216,2.216,0,0,0,2.2-1.684H25.1V6.816H.9V3.026H8.517a.435.435,0,0,0,.448-.421.435.435,0,0,0-.448-.421H7.7a1.339,1.339,0,0,1,1.262-.842A1.308,1.308,0,0,1,10.31,2.605,1.308,1.308,0,0,1,8.966,3.868a.422.422,0,1,0,0,.842,2.179,2.179,0,0,0,2.241-2.105A2.179,2.179,0,0,0,8.966.5a2.216,2.216,0,0,0-2.2,1.684H0V24.5H26V2.184ZM25.1,23.658H.9v-16H25.1Z"/><path class="a" d="M25.535,1.569a1.6,1.6,0,1,1,0,3.208.535.535,0,0,0,0,1.069,2.674,2.674,0,0,0,0-5.347.535.535,0,1,0,0,1.069Z" transform="translate(-14.042)"/><path class="a" d="M31.535,1.569a1.6,1.6,0,0,1,0,3.208.535.535,0,0,0,0,1.069,2.674,2.674,0,1,0,0-5.347.535.535,0,1,0,0,1.069Z" transform="translate(-17.413)"/><circle class="a" cx="0.535" cy="0.535" r="0.535" transform="translate(9.349 10.089)"/><circle class="a" cx="0.535" cy="0.535" r="0.535" transform="translate(12.465 10.089)"/><circle class="a" cx="0.535" cy="0.535" r="0.535" transform="translate(15.582 10.089)"/><circle class="a" cx="0.535" cy="0.535" r="0.535" transform="translate(18.698 10.089)"/><circle class="a" cx="0.535" cy="0.535" r="0.535" transform="translate(21.188 10.089)"/><circle class="a" cx="0.535" cy="0.535" r="0.535" transform="translate(3.743 13.425)"/><circle class="a" cx="0.535" cy="0.535" r="0.535" transform="translate(6.233 13.425)"/><circle class="a" cx="0.535" cy="0.535" r="0.535" transform="translate(9.349 13.425)"/><circle class="a" cx="0.535" cy="0.535" r="0.535" transform="translate(12.465 13.425)"/><circle class="a" cx="0.535" cy="0.535" r="0.535" transform="translate(15.582 13.425)"/><circle class="a" cx="0.535" cy="0.535" r="0.535" transform="translate(18.698 13.425)"/><circle class="a" cx="0.535" cy="0.535" r="0.535" transform="translate(21.188 13.425)"/><circle class="a" cx="0.535" cy="0.535" r="0.535" transform="translate(3.743 16.343)"/><circle class="a" cx="0.535" cy="0.535" r="0.535" transform="translate(6.233 16.343)"/><circle class="a" cx="0.535" cy="0.535" r="0.535" transform="translate(9.349 16.343)"/><circle class="a" cx="0.535" cy="0.535" r="0.535" transform="translate(12.465 16.343)"/><circle class="a" cx="0.535" cy="0.535" r="0.535" transform="translate(15.582 16.343)"/><circle class="a" cx="0.535" cy="0.535" r="0.535" transform="translate(18.698 16.343)"/><circle class="a" cx="0.535" cy="0.535" r="0.535" transform="translate(21.188 16.343)"/><circle class="a" cx="0.535" cy="0.535" r="0.535" transform="translate(3.743 19.48)"/><circle class="a" cx="0.535" cy="0.535" r="0.535" transform="translate(6.233 19.48)"/><circle class="a" cx="0.535" cy="0.535" r="0.535" transform="translate(9.349 19.48)"/><circle class="a" cx="0.535" cy="0.535" r="0.535" transform="translate(12.465 19.48)"/><circle class="a" cx="0.535" cy="0.535" r="0.535" transform="translate(15.582 19.48)"/></g></svg>