<svg xmlns="http://www.w3.org/2000/svg" width="32.013" height="21.342" viewBox="0 0 32.013 21.342"><defs><style>.a{fill:#ae9a5b;}</style></defs><path class="a" d="M27.2,18.64A9.137,9.137,0,0,0,18.186,10a9.4,9.4,0,0,0-7.441,3.739c-.04-.021-.082-.035-.123-.054-.106-.051-.213-.1-.322-.144-.061-.024-.122-.046-.183-.067-.108-.038-.218-.071-.33-.1-.061-.017-.122-.034-.184-.047-.12-.027-.243-.048-.367-.067-.054-.008-.107-.019-.161-.025A4.787,4.787,0,0,0,3.735,18c0,.068,0,.134.009.2v0A7.378,7.378,0,0,0,0,24.488a6.862,6.862,0,0,0,6.853,6.854H19.93c.055,0,.11,0,.166-.007l.033,0,.071,0c.054,0,.109.007.165.007H25.6a6.425,6.425,0,0,0,6.418-6.418A6.566,6.566,0,0,0,27.2,18.64ZM25.6,30.275h-5.23c-.031,0-.062,0-.093,0l-.145-.006-.106.006c-.03,0-.061,0-.092,0H6.853a5.793,5.793,0,0,1-5.786-5.787A6.342,6.342,0,0,1,4.5,19.018l.3-.145v-.336c0-.068,0-.137.008-.206l0-.085-.006-.112c0-.043-.006-.086-.006-.13a3.71,3.71,0,0,1,4.224-3.7c.042.005.083.012.124.019a3.637,3.637,0,0,1,.421.094l.057.014a3.635,3.635,0,0,1,.446.171c.038.017.075.036.112.054A3.727,3.727,0,0,1,12.272,18a.534.534,0,0,0,1.067,0,4.791,4.791,0,0,0-1.707-3.666,8.451,8.451,0,0,1,6.555-3.27,8.055,8.055,0,0,1,7.922,7.41,10.191,10.191,0,0,0-2.178.066.534.534,0,0,0,.079,1.061.513.513,0,0,0,.081-.006,9.8,9.8,0,0,1,2.5,0,5.468,5.468,0,0,1,4.357,5.328A5.357,5.357,0,0,1,25.6,30.275Z" transform="translate(0 -10)"/></svg>