<svg xmlns="http://www.w3.org/2000/svg" width="26" height="24" viewBox="0 0 26 24"><defs><style>.a{fill:#ae9a5b;}</style></defs><g transform="translate(0 -0.261)"><path class="a" d="M23.973,51.762a.622.622,0,0,0-.647.594v5.278a1.869,1.869,0,0,1-1.941,1.783H3.234a1.869,1.869,0,0,1-1.941-1.783V42.144a1.869,1.869,0,0,1,1.941-1.783H8.978a.6.6,0,1,0,0-1.189H3.234A3.115,3.115,0,0,0,0,42.144v15.49a3.115,3.115,0,0,0,3.234,2.972H21.385a3.115,3.115,0,0,0,3.234-2.972V52.356a.622.622,0,0,0-.647-.594Zm0,0" transform="translate(0 -36.346)"/><path class="a" d="M125.89,1.13a2.967,2.967,0,0,0-4.2,0L109.93,12.893a.659.659,0,0,0-.169.29l-1.547,5.585a.659.659,0,0,0,.811.812l5.585-1.547a.659.659,0,0,0,.29-.169L126.664,6.1a2.97,2.97,0,0,0,0-4.2ZM111.367,13.322l9.628-9.628,3.1,3.1-9.628,9.628Zm-.62,1.245,2.481,2.481L109.8,18Zm14.985-9.4-.7.7-3.105-3.105.7-.7a1.648,1.648,0,0,1,2.331,0l.774.774A1.651,1.651,0,0,1,125.731,5.167Zm0,0" transform="translate(-101.532)"/></g></svg>