<svg xmlns="http://www.w3.org/2000/svg" width="20" height="14" viewBox="0 0 20 14"><defs><style>.a{fill:#afaeae;}</style></defs><g transform="translate(0 -57.75)"><g transform="translate(0 57.75)"><path class="a" d="M17.558,57.75H2.446A2.356,2.356,0,0,0,0,60v9.5a2.356,2.356,0,0,0,2.446,2.25H17.554A2.356,2.356,0,0,0,20,69.5V60A2.352,2.352,0,0,0,17.558,57.75ZM18.887,69.5a1.28,1.28,0,0,1-1.328,1.222H2.446A1.28,1.28,0,0,1,1.117,69.5V60a1.28,1.28,0,0,1,1.328-1.222H17.554A1.28,1.28,0,0,1,18.883,60v9.5Z" transform="translate(0 -57.75)"/><path class="a" d="M65.827,113.517l4.782-3.773a.443.443,0,0,0,.04-.68.6.6,0,0,0-.773-.036l-6.594,5.208L62,113.225s-.008-.007-.008-.011a.788.788,0,0,0-.089-.068l-5.235-4.122a.6.6,0,0,0-.773.039.441.441,0,0,0,.044.68l4.838,3.805-4.818,3.969a.443.443,0,0,0-.024.68.6.6,0,0,0,.4.153.591.591,0,0,0,.372-.128L61.6,114.2l1.327,1.043a.6.6,0,0,0,.728,0l1.363-1.075,4.862,4.065a.6.6,0,0,0,.773-.018.443.443,0,0,0-.02-.68Z" transform="translate(-53.272 -106.627)"/></g></g></svg>