<svg xmlns="http://www.w3.org/2000/svg" width="29.755" height="27" viewBox="0 0 29.755 27"><defs><style>.a{fill:#ae9a5b;}</style></defs><g transform="translate(0 -3.315)"><g transform="translate(0 3.315)"><path class="a" d="M16.254,3.315a13.506,13.506,0,0,0-13.5,13.462,15.627,15.627,0,0,0,.485,4.189L1.42,19.906a.944.944,0,1,0-.952,1.632L4.73,24.022c.009,0,.018.006.026.01a.933.933,0,0,0,.141.059,1.008,1.008,0,0,0,.1.032.976.976,0,0,0,.123.015c.029,0,.058.012.087.012s.032-.006.049-.007.03,0,.045,0,.045-.012.067-.016A.969.969,0,0,0,5.5,24.1a.926.926,0,0,0,.108-.044.894.894,0,0,0,.113-.064.863.863,0,0,0,.187-.162.863.863,0,0,0,.075-.1c.013-.019.03-.032.041-.052s.008-.031.015-.046.032-.048.044-.076l1.7-4.2a.944.944,0,1,0-1.751-.708L5.157,20.81a13.992,13.992,0,0,1-.513-3.995,11.611,11.611,0,1,1,11.611,11.61.945.945,0,1,0,0,1.889,13.5,13.5,0,1,0,0-27Z" transform="translate(0 -3.315)"/><path class="a" d="M27.041,27.252a.935.935,0,0,0,.3.06c.021,0,.042.013.063.013a.935.935,0,0,0,.321-.063.831.831,0,0,0,.083-.039.944.944,0,0,0,.217-.144c.015-.013.034-.017.048-.032l5.9-5.9a.945.945,0,0,0-1.336-1.336l-5.45,5.45L22.29,23.215a.945.945,0,0,0-.731,1.743l5.477,2.293h.006Z" transform="translate(-11.149 -11.936)"/></g></g></svg>