<svg xmlns="http://www.w3.org/2000/svg" width="22" height="10" viewBox="0 0 22 10"><defs><style>.a{fill:#afaeae;}</style></defs><g transform="translate(22 -142.649) rotate(90)"><g transform="translate(142.649)"><path class="a" d="M152.649,4.871a5,5,0,0,0-10,0A4.923,4.923,0,0,0,146.987,9.7V22h1.323v-.831h1.35V19.88h-1.35V18.87h1.764V17.58h-1.764V9.7A4.923,4.923,0,0,0,152.649,4.871Zm-5,3.581a3.634,3.634,0,0,1-3.677-3.581,3.678,3.678,0,0,1,7.353,0A3.634,3.634,0,0,1,147.649,8.452Z" transform="translate(-142.649)"/></g></g></svg>