<svg xmlns="http://www.w3.org/2000/svg" width="30" height="32" viewBox="0 0 30 32"><defs><style>.a{fill:#897b4c;}</style></defs><path class="a" d="M14.075,0h-.232a1.74,1.74,0,0,0-1.737,1.724v1.66L7.171,1.925a.533.533,0,0,0-.414.047A.547.547,0,0,0,6.5,2.3L.079,24.767a.56.56,0,0,0,.377.689l22.13,6.522a.548.548,0,0,0,.68-.376l.685-2.392H29.5a.57.57,0,0,0,.562-.563V5.257a.54.54,0,0,0-.562-.527H16.6l-.8-.271V1.724A1.736,1.736,0,0,0,14.075,0ZM13.2,1.724a.635.635,0,0,1,.641-.611h.232a.63.63,0,0,1,.635.611V4.135L13.2,3.707ZM24.269,28.1,28.962,11.73V28.1ZM28.962,5.842v2.5l-8.583-2.5ZM28.5,9.36,22.371,30.753,1.291,24.543,7.422,3.149,14.71,5.293v3.8a.617.617,0,1,1-1.233,0V6.778a.548.548,0,1,0-1.1,0V9.09a1.713,1.713,0,1,0,3.426,0V5.617Zm0,0" transform="translate(-0.058)"/></svg>