<svg xmlns="http://www.w3.org/2000/svg" width="18" height="18" viewBox="0 0 18 18"><defs><style>.a{fill:#afaeae;}</style></defs><g transform="translate(0 -13.415)"><path class="a" d="M134.741,23.183a4.886,4.886,0,1,0-4.754-4.891A4.825,4.825,0,0,0,134.741,23.183Zm0-8.492a3.6,3.6,0,1,1-3.5,3.6A3.562,3.562,0,0,1,134.741,14.69Z" transform="translate(-125.771 0)"/><path class="a" d="M.635,347.708H17.365a.636.636,0,0,0,.635-.645,6.1,6.1,0,0,0-6.044-6.137H6.044A6.1,6.1,0,0,0,0,347.063.636.636,0,0,0,.635,347.708Zm5.409-5.491h5.911a4.8,4.8,0,0,1,4.729,4.2H1.315A4.808,4.808,0,0,1,6.044,342.216Z" transform="translate(0 -316.293)"/></g></svg>